HIERARCHY
ROOT Hips
{
	OFFSET -14.64140 90.27770 -84.91600
	CHANNELS 6 Xposition Yposition Zposition Zrotation Xrotation Yrotation
	JOINT Spine
	{
		OFFSET 0.00000 13.20850 -1.60436
		CHANNELS 3 Zrotation Xrotation Yrotation
		JOINT Spine1
		{
			OFFSET 0.00000 8.61716 0.00000
			CHANNELS 3 Zrotation Xrotation Yrotation
			JOINT Spine2
			{
				OFFSET 0.00000 8.61717 0.00000
				CHANNELS 3 Zrotation Xrotation Yrotation
				JOINT Spine3
				{
					OFFSET 0.00000 8.61717 0.00000
					CHANNELS 3 Zrotation Xrotation Yrotation
					JOINT Neck
					{
						OFFSET 0.00000 11.07920 1.10792
						CHANNELS 3 Zrotation Xrotation Yrotation
						JOINT Neck1
						{
							OFFSET 0.00000 7.08032 0.00000
							CHANNELS 3 Zrotation Xrotation Yrotation
							JOINT Head
							{
								OFFSET 0.00000 7.08031 0.00000
								CHANNELS 3 Zrotation Xrotation Yrotation
								End site
								{
									OFFSET 0.00000 0.00000 0.00000
								}
							}
						}
					}
					JOINT RightShoulder
					{
						OFFSET -0.01000 7.91373 5.19711
						CHANNELS 3 Zrotation Xrotation Yrotation
						JOINT RightArm
						{
							OFFSET -18.41580 0.00000 0.00000
							CHANNELS 3 Zrotation Xrotation Yrotation
							JOINT RightForeArm
							{
								OFFSET -29.11090 0.00000 0.00000
								CHANNELS 3 Zrotation Xrotation Yrotation
								JOINT RightHand
								{
									OFFSET -24.65040 0.00000 0.00000
									CHANNELS 3 Zrotation Xrotation Yrotation
									JOINT RightHandThumb1
									{
										OFFSET -5.35114 -0.85590 3.97906
										CHANNELS 3 Zrotation Xrotation Yrotation
										JOINT RightHandThumb2
										{
											OFFSET -4.52789 0.00000 0.00000
											CHANNELS 3 Zrotation Xrotation Yrotation
											JOINT RightHandThumb3
											{
												OFFSET -2.46976 0.00000 0.00000
												CHANNELS 3 Zrotation Xrotation Yrotation
												End site
												{
													OFFSET 0.00000 0.00000 0.00000
												}
											}
										}
									}
									JOINT RightHandIndex1
									{
										OFFSET -14.26970 0.00000 2.88139
										CHANNELS 3 Zrotation Xrotation Yrotation
										JOINT RightHandIndex2
										{
											OFFSET -5.48836 0.00000 0.00000
											CHANNELS 3 Zrotation Xrotation Yrotation
											JOINT RightHandIndex3
											{
												OFFSET -3.01859 0.00000 0.00000
												CHANNELS 3 Zrotation Xrotation Yrotation
												End site
												{
													OFFSET 0.00000 0.00000 0.00000
												}
											}
										}
									}
									JOINT RightHandMiddle1
									{
										OFFSET -14.26970 0.00000 -0.09147
										CHANNELS 3 Zrotation Xrotation Yrotation
										JOINT RightHandMiddle2
										{
											OFFSET -6.17441 0.00000 0.00000
											CHANNELS 3 Zrotation Xrotation Yrotation
											JOINT RightHandMiddle3
											{
												OFFSET -3.56743 0.00000 0.00000
												CHANNELS 3 Zrotation Xrotation Yrotation
												End site
												{
													OFFSET 0.00000 0.00000 0.00000
												}
											}
										}
									}
									JOINT RightHandRing1
									{
										OFFSET -12.69180 0.00000 -3.06433
										CHANNELS 3 Zrotation Xrotation Yrotation
										JOINT RightHandRing2
										{
											OFFSET -5.62556 0.00000 0.00000
											CHANNELS 3 Zrotation Xrotation Yrotation
											JOINT RightHandRing3
											{
												OFFSET -3.56744 0.00000 0.00000
												CHANNELS 3 Zrotation Xrotation Yrotation
												End site
												{
													OFFSET 0.00000 0.00000 0.00000
												}
											}
										}
									}
									JOINT RightHandPinky1
									{
										OFFSET -11.11390 0.00000 -6.03719
										CHANNELS 3 Zrotation Xrotation Yrotation
										JOINT RightHandPinky2
										{
											OFFSET -4.52789 0.00000 0.00000
											CHANNELS 3 Zrotation Xrotation Yrotation
											JOINT RightHandPinky3
											{
												OFFSET -2.46976 0.00000 0.00000
												CHANNELS 3 Zrotation Xrotation Yrotation
												End site
												{
													OFFSET 0.00000 0.00000 0.00000
												}
											}
										}
									}
								}
							}
						}
					}
					JOINT LeftShoulder
					{
						OFFSET 0.01000 7.91373 5.19711
						CHANNELS 3 Zrotation Xrotation Yrotation
						JOINT LeftArm
						{
							OFFSET 18.41580 0.00000 0.00000
							CHANNELS 3 Zrotation Xrotation Yrotation
							JOINT LeftForeArm
							{
								OFFSET 29.11090 0.00000 0.00000
								CHANNELS 3 Zrotation Xrotation Yrotation
								JOINT LeftHand
								{
									OFFSET 24.65040 0.00000 0.00000
									CHANNELS 3 Zrotation Xrotation Yrotation
									JOINT LeftHandThumb1
									{
										OFFSET 5.35114 -0.85590 3.97906
										CHANNELS 3 Zrotation Xrotation Yrotation
										JOINT LeftHandThumb2
										{
											OFFSET 4.52789 0.00000 0.00000
											CHANNELS 3 Zrotation Xrotation Yrotation
											JOINT LeftHandThumb3
											{
												OFFSET 2.46977 0.00000 0.00000
												CHANNELS 3 Zrotation Xrotation Yrotation
												End site
												{
													OFFSET 0.00000 0.00000 0.00000
												}
											}
										}
									}
									JOINT LeftHandIndex1
									{
										OFFSET 14.26970 0.00000 2.88139
										CHANNELS 3 Zrotation Xrotation Yrotation
										JOINT LeftHandIndex2
										{
											OFFSET 5.48836 0.00000 0.00000
											CHANNELS 3 Zrotation Xrotation Yrotation
											JOINT LeftHandIndex3
											{
												OFFSET 3.01859 0.00000 0.00000
												CHANNELS 3 Zrotation Xrotation Yrotation
												End site
												{
													OFFSET 0.00000 0.00000 0.00000
												}
											}
										}
									}
									JOINT LeftHandMiddle1
									{
										OFFSET 14.26970 0.00000 -0.09147
										CHANNELS 3 Zrotation Xrotation Yrotation
										JOINT LeftHandMiddle2
										{
											OFFSET 6.17440 0.00000 0.00000
											CHANNELS 3 Zrotation Xrotation Yrotation
											JOINT LeftHandMiddle3
											{
												OFFSET 3.56744 0.00000 0.00000
												CHANNELS 3 Zrotation Xrotation Yrotation
												End site
												{
													OFFSET 0.00000 0.00000 0.00000
												}
											}
										}
									}
									JOINT LeftHandRing1
									{
										OFFSET 12.69180 0.00000 -3.06433
										CHANNELS 3 Zrotation Xrotation Yrotation
										JOINT LeftHandRing2
										{
											OFFSET 5.62556 0.00000 0.00000
											CHANNELS 3 Zrotation Xrotation Yrotation
											JOINT LeftHandRing3
											{
												OFFSET 3.56744 0.00000 0.00000
												CHANNELS 3 Zrotation Xrotation Yrotation
												End site
												{
													OFFSET 0.00000 0.00000 0.00000
												}
											}
										}
									}
									JOINT LeftHandPinky1
									{
										OFFSET 11.11390 0.00000 -6.03719
										CHANNELS 3 Zrotation Xrotation Yrotation
										JOINT LeftHandPinky2
										{
											OFFSET 4.52789 0.00000 0.00000
											CHANNELS 3 Zrotation Xrotation Yrotation
											JOINT LeftHandPinky3
											{
												OFFSET 2.46976 0.00000 0.00000
												CHANNELS 3 Zrotation Xrotation Yrotation
												End site
												{
													OFFSET 0.00000 0.00000 0.00000
												}
											}
										}
									}
								}
							}
						}
					}
					JOINT pCube4
					{
						OFFSET 0.00000 10.91090 1.10792
						CHANNELS 3 Zrotation Xrotation Yrotation
						End site
						{
							OFFSET 0.00000 0.00000 0.00000
						}
					}
				}
			}
		}
	}
	JOINT RightUpLeg
	{
		OFFSET -9.98441 0.00000 0.00000
		CHANNELS 3 Zrotation Xrotation Yrotation
		JOINT RightLeg
		{
			OFFSET 0.00000 -42.11790 0.00000
			CHANNELS 3 Zrotation Xrotation Yrotation
			JOINT RightFoot
			{
				OFFSET 0.00000 -45.00020 -0.00001
				CHANNELS 3 Zrotation Xrotation Yrotation
				JOINT RightForeFoot
				{
					OFFSET 0.00000 -3.74820 0.00000
					CHANNELS 3 Zrotation Xrotation Yrotation
					JOINT RightToeBase
					{
						OFFSET 0.00000 0.06325 14.43120
						CHANNELS 3 Zrotation Xrotation Yrotation
						End site
						{
							OFFSET 0.00000 0.00000 0.00000
						}
					}
				}
			}
		}
	}
	JOINT LeftUpLeg
	{
		OFFSET 9.98441 0.00000 0.00000
		CHANNELS 3 Zrotation Xrotation Yrotation
		JOINT LeftLeg
		{
			OFFSET 0.00000 -42.11800 0.00000
			CHANNELS 3 Zrotation Xrotation Yrotation
			JOINT LeftFoot
			{
				OFFSET 0.00000 -45.00070 0.00000
				CHANNELS 3 Zrotation Xrotation Yrotation
				JOINT LeftForeFoot
				{
					OFFSET 0.00000 -3.74824 0.00000
					CHANNELS 3 Zrotation Xrotation Yrotation
					JOINT LeftToeBase
					{
						OFFSET 0.00000 0.06325 14.43110
						CHANNELS 3 Zrotation Xrotation Yrotation
						End site
						{
							OFFSET 0.00000 0.00000 0.00000
						}
					}
				}
			}
		}
	}
}
MOTION
Frames: 4
Frame Time: 0.050000
0.047970984557915576 0.020160907925565828 0.032547363398674894 -0.020754584964561933 0.042883049722939826 0.02136112152247123 -2.663994185656711 1.1641013817781216 -0.7356455554910651 -0.9600348065420037 3.695172005919076 0.3517977168401417 -1.1877683586981835 -2.045744643225396 -0.9481836642618319 -0.5587399043092425 0.17451747431528028 -0.8355826485281759 -0.6262289144467182 13.61552765954661 1.3998738338738173 -0.2551742385570624 0.6819503366387715 0.9862466310508662 -0.7432538063269807 -13.859348849535799 0.1362859395693782 -7.0248303970029005 2.463575634670273 -12.758095864989967 63.97573296299813 5.4150175606190665 24.55367989199853 17.55751128969364 -4.348886879073311 75.1278999901649 17.53601314374146 -0.3685611351439091 -3.4846311268694956 4.535461048737995 -0.14808997058391685 -1.629177216369807 -0.03177552612322268 0.03821632600716234 -56.200223828080226 -0.043646515799431664 0.018346550626471916 -56.25881966787617 -38.75258106483523 0.0010969732896043975 0.03185933549057554 -0.015209839226265618 -0.006063152284057799 -0.0008069881318268508 0.021188170975406567 0.026456142071547513 -0.026525309959788863 -36.680704479207975 0.0015563435891212554 0.002136687646188494 -0.04484110223006032 -0.02948480249174691 0.023529018904381995 0.035899121674005385 0.015370469728969634 0.0018947468099338911 -19.740682473080263 0.019498105085786435 0.0036615714849916915 -0.007503741637609183 0.010166904820902831 0.032033961201671714 0.038397529077775806 0.025026665604821318 0.029180588744831596 24.054446998021444 0.0232893715072448 -0.008230008065212423 28.90872075214875 -0.025088422370090065 0.0015725088837406334 28.87803863864775 -0.04579650931653732 -0.04413894434508917 8.860060734389995 1.9600475443251784 12.059056401322321 -63.671199760718345 13.891101399106224 -24.188637612018752 -38.078060241653006 3.3522300752803784 -77.79146036888648 -13.070569262185241 -0.19986714565948735 1.1363638404701344 -0.5094706584662586 0.02933595845136225 -8.083814725647768 -0.005284706605206152 -0.044303822255022246 44.59658524764198 0.0035086646280044842 -0.010583441065342628 44.60912330673858 12.444606677307881 0.02775616771724239 0.0252364364673557 -0.005555634556977815 -0.0387626579019049 -0.029755975288905726 -0.044473628656925744 0.02695632306462227 0.010035062711993087 11.129006832128512 0.007679235464410813 -0.03765538281643322 0.045060309776800714 -0.036308905366869974 -0.019468406029513968 0.02245253349250933 -0.045017698427955916 0.009126097688547528 4.78813310492313 -0.0049426044474927214 0.00637580461955348 -0.0057916181557308224 -0.027712475521721527 -0.04958980480316271 -0.005680037930868158 0.047983188793887785 0.008414483478290482 -5.612502444373401 0.012103578043230222 -0.048873747383914645 -6.708870943935686 -0.023326457740839874 0.02987417033800465 -6.680707079135893 -0.03698631197265142 -0.011703441033255001 -0.0028465030354229777 -0.025059962823708076 0.046671935638680676 8.02966324221391 3.494134207224081 -19.257353670808072 0.014944485828874535 10.375280364988495 -0.010264845680258351 -5.633965208720006 -15.63105365939202 3.170263269354058 0.001917893771251751 0.03370201647757427 0.04424931597353876 -0.020019064775501746 4.67341015805009 0.012953097079301727 12.483854212534535 -8.235263542528868 6.87546190077239 0.026291161128721978 46.42723359530111 -0.020299531941965283 -4.331502625799507 -14.766090251627997 -3.8341081578164844 0.01755889367860384 -0.03149465941212699 0.010426550264189198 -0.0025450935044936895 -10.768743723977165 0.025074152613718634 
0.0034365723438057995 -0.01890528053145103 0.022928866350228023 -0.019088997064282864 -0.03742556085629463 -0.04682884256505913 -2.6890668785512215 1.257489334203205 -0.683598122326706 -1.0414367922255012 3.6950707740791677 0.36832918829401756 -1.1667541483577373 -1.9969032535644646 -1.0209728434793555 -0.4666053946646616 0.2551790695992745 -0.7885925393136606 -0.690676682484461 13.489789011141838 1.4069458885868087 -0.3251228077173379 0.5034593101370368 0.947028970322387 -0.7120529473514204 -14.053959588679481 0.17358000418626443 -6.8731726798527495 2.293293100896119 -12.710947701976334 63.64973319710015 6.341943671518506 23.29737216243927 18.99467119937852 -5.4026287159318835 72.63898932635195 17.81706548003617 -0.32092458231295906 -3.5098462222998075 4.513834223899525 -0.1081149121851922 -1.634592421188367 0.033803157049621266 -0.03439621347196267 -56.27390303482818 0.042615606220135695 -0.02890027129533179 -56.21963045696258 -38.79230403221497 0.03721290468538709 0.013916858997658146 0.0076088485546207335 -0.024471855032065563 -0.00636938369324605 -0.03659767503780667 -0.017421783486573857 -0.020390707031748917 -36.65678704650649 0.04104272673963771 0.018802939092615597 0.014398604892912057 0.012708559642290486 -0.013496930838430371 -0.00567891450620189 -0.008224881922648617 -0.01236735081988853 -19.746892512801736 0.0028774423119661014 -0.0027823021067511083 -0.032803166406973956 0.04609446913417863 0.037234243409959074 0.04937598068277119 -0.023153091070801844 0.012430079752918884 24.068107140631128 -0.040114702629743926 -0.0038071109415759447 28.85865992071026 0.034478929011403106 0.01715115246416204 28.816873525337588 0.012399588977130676 -0.012989204544201759 8.463024744233634 1.859573938469766 11.951998163617011 -64.20544597953906 14.395741696334035 -22.680756752168655 -42.81463343038069 4.61502146661495 -76.60116827726249 -13.085073682433627 0.46567813017917753 0.7630766116786063 -0.501765774836278 0.03332851976851391 -8.086952232759694 -0.013190190463708496 -0.01812615300124597 44.56106630427928 0.0356738611640137 -0.007212902202957687 44.59081798318382 12.490866253191665 -0.0475148458720078 0.036552813230793575 -0.0009236011429056656 0.007832225381687378 -0.018831932489197307 -0.010160659606014748 0.04421026160786974 -0.004681484810286421 11.099709959741894 0.01783142733062267 0.03016076978592501 0.011975546158063458 0.03814720218529217 0.04490677535578673 -0.02690240948470231 -0.04222898820658587 0.004118249595498415 4.751957386051106 0.022955618971956752 0.04443431195290178 0.01401308115086486 -0.028577613984311696 0.046488907337403754 0.028106444882056044 0.0048917331472211915 0.04409070563458729 -5.570569765537295 -0.04431621797905014 -0.01572113689166495 -6.764829266470021 0.04003693305081441 -0.006949537137426828 -6.702997462996955 -0.04490470330743332 0.014887261422591249 0.013043852495120882 0.01442412232454255 0.011121112270421339 8.037521722373521 3.495318380294574 -19.201434435838625 -0.047577025710022605 10.41540732868698 0.007842467797332185 -5.617505054605859 -15.645943901958656 3.1947503463663898 -0.014497528223647775 -0.026017159780588557 -0.02011768353361327 -0.017228220558791786 4.662067370639474 -0.015623344031950398 12.474819644954007 -8.203581632152014 6.882125721924762 -0.014071884030304379 46.406486523239074 -0.0035204657905084265 -4.373091426192021 -14.744253457715642 -3.8533381691713915 -0.027578139202253327 0.04649018634682214 -0.02261634033195025 0.04239885665819201 -10.714324128382426 0.009571881904419974 
0.046098012528806964 0.023566738236464317 -0.019600751173818955 0.04446460484560113 -0.014205463424596563 -0.0421505560805642 -2.7197368334811216 1.3603414713495585 -0.692997198906964 -1.0468120728775585 3.7200175011577254 0.39317502996007514 -1.2584987500618625 -1.906189896589608 -1.0632479760279903 -0.3833187467261652 0.30031693208733584 -0.7979042984362579 -0.6217567519695363 13.193177713707163 1.2072750471338554 -0.34936561603989114 0.4030763656258903 0.5843245760395696 -0.6663482103198151 -14.259469536820896 0.11434813627224583 -6.6064185617958255 2.2176818454771614 -12.805060413694205 63.46828619061623 7.1293604020405015 21.67192145819001 21.650898618909128 -6.191011106787257 69.87602250289963 18.287031357908848 -0.3107006869680479 -3.5576477960512367 4.5715247591726005 -0.16520995107903716 -1.5936752111514325 0.03053449304587248 0.009204029781583602 -56.25851125044209 -0.016155820662357538 -0.04182157157481858 -56.19476309598602 -38.80000010716373 0.008739783670975774 -0.015689075639892937 -0.0315969225946094 -0.0435597517020346 -0.03312428851768413 -0.002835128076992075 0.021927234492962116 0.010038868401007173 -36.68804746295258 0.023748915173455825 0.002816214356593167 -0.019437608113110044 -0.015381070288437923 -0.03939001868583486 -0.03151688883663021 0.006737819791954358 0.012068508121035113 -19.794066300914178 0.004628615688197649 -0.025917019274861123 0.012451340739302789 0.028519012383969276 -0.0012763884709606527 -0.034309902773699434 0.04962353659257889 -0.010096887703575808 24.04010983916495 0.013021445115451665 0.018933873725049802 28.864105976305115 -0.02132465954341011 0.027717475636807695 28.846332054052027 -0.035077923688684634 -0.03046848520328409 7.975106591383959 1.7696262409610408 11.964266873835061 -64.6227074111618 14.81697040990223 -20.262415142589287 -46.1672242001132 4.822563069459787 -74.42487049930739 -12.896987172063934 1.23481983046053 0.30468684147624536 -0.5051782937569035 0.057071628459012036 -8.07421575223765 -0.03050685398928499 -0.02858500850249542 44.53015228785311 0.01564573127508455 0.0027150548633336213 44.558060211397994 12.420749921078553 0.04177179673727306 0.00411277934587272 0.0012714969334004667 0.03376211467340588 -0.001711617375704742 -0.042357533555174715 0.009662392351696318 0.03276504680326974 11.126382170245863 -0.0024864835701858337 0.021974183100800338 0.04576303644164512 -0.02147838958734429 0.026508555963086277 0.0012289542482656253 0.004865934517462226 -0.04206268484161218 4.723957814075708 -0.03364880360043874 0.030014825419876524 0.047559195801198086 -0.013440925492950388 -0.0028990019121018845 0.018738992391654958 -0.035809825477945555 0.0025440779201432433 -5.5969993707312495 0.0026771877557628726 -0.030389078014408728 -6.722261055963899 -0.03918801275721704 0.03755223167874674 -6.753507555633116 -0.04763558049126544 0.0073196349040022075 -0.02793226777409087 0.026431903073398585 -0.023136822565290822 8.027190683629604 3.493187582299851 -19.210466652987353 0.031313242068557054 10.37460678084738 0.016881886045166133 -5.641210036029158 -15.634993693825603 3.1506936189302017 0.028789433154471408 -0.0021437098896650362 0.01705567561890359 0.020597664735340613 4.742662214124334 -0.03863770130794668 12.459457525819486 -8.206626154540515 6.889633312353783 0.033604322885207594 46.36946869181768 0.0070506529629201335 -4.303471090756034 -14.774016115844033 -3.8479791227973017 -0.016431381944377148 0.013145129815897277 0.02240040562617974 0.02096084678806433 -10.770580353522536 -0.03263594759315079 
0.026156338162729643 0.010399097827731709 -0.00478792993855911 0.01860843388565852 0.012742518794098285 -0.04936564768589412 -2.7623659357768586 1.4984410337999496 -0.7139405373799271 -1.087520499649023 3.7821295806526236 0.4042981956909748 -1.2204039274585117 -1.8128749998566551 -1.0147109657934634 -0.2353079496663732 0.31641756330135623 -0.8506241699690363 -0.540270338416619 12.974610620896941 0.938872005343052 -0.3101871354642256 0.18884418697220173 -0.26504836010425187 -0.6475706043277563 -14.591312268127888 0.07835931438346842 -6.415696743142252 2.1182515513103493 -12.9518911458431 63.40813781730339 7.625338065145848 20.301662521237947 23.94565922139604 -6.888553664989714 67.45117075733023 18.330481383446454 -0.28039098013778935 -3.5163166206239973 4.541171616525753 -0.10423040076949197 -1.626605567650333 0.01203978940310333 -0.020037641539747186 -56.20639643480622 0.01595231148407256 0.04397833117479577 -56.208660184268496 -38.747112158793186 -0.009346963378238034 -0.01831464688553844 0.008266267725667468 -0.005704317193359682 0.01645914140369823 -0.007674260215473114 -0.007513755451878741 0.016709490141899513 -36.68352504504396 -0.042986039598724164 -0.043401772561909455 0.031598987092251174 -0.027821871388912327 0.01658435877072431 -0.02018069088619883 -0.03480391152684057 0.03265155484741556 -19.714298059142564 -0.03681346539389062 0.03951442053290588 0.03208892559169075 -0.02114876464954215 -0.020134620631898564 0.01181183234074935 -0.01487522439554299 -0.03749452773619621 24.05103181768797 0.009392298920583254 -0.048856898150362774 28.868788487886583 0.02669239334959807 0.037607438690107936 28.84424605544792 -0.047321045611992775 0.029643037898306867 7.416759149136146 1.6319571534872739 12.031890466656325 -65.15045542242659 15.700366392459895 -17.376721234791432 -45.470531532048376 3.7533910262721624 -70.60145006316188 -12.532850131606564 1.7851874335622733 -0.04335417865061192 -0.43803793273666813 0.10128097999434424 -8.134145835045931 0.026772324439141137 -0.008442960102688827 44.59435183899386 0.01984272664070996 0.010063940606340353 44.51850562757615 12.443951910869758 0.025801888254544658 -0.030911556565317147 0.00978574293103549 -0.034088692807636156 -0.03853448390117363 -0.04889318726492625 0.02002150677021087 0.0474013898556243 11.083346398069782 -0.047495201667012196 -0.034164831655008165 -0.02799092407368499 0.01055528497207615 -0.012996465466560789 -0.001486369818324239 -0.012026756645133753 -0.0223947927533297 4.786734502528205 0.013392692102781933 -0.03134299851884758 -0.015218685303657924 -0.029400659213098597 -0.0002679045679982683 -0.03167205414800563 -0.013361008063398462 0.03967337237835857 -5.623149745502707 0.01163708718062532 -0.00041976773155173903 -6.675629850196573 0.04798881356941018 0.004408310352845765 -6.6864737579949844 -0.02375199105453808 -0.01741676417232093 -0.04067646403475197 -0.00997688563144311 0.035623522857338406 8.057993545686726 3.5194080743327985 -19.262727639652702 -0.04820092813085265 10.439509559426574 0.02214016698851868 -5.619296876511523 -15.684692693209318 3.2361611160402153 -0.04515991527917387 0.02276956520115245 -0.03147169977327432 -0.008512753962220284 4.686985741918633 0.04203198851384197 12.448188535953054 -8.24254915465045 6.847459486578755 -0.028623832445387902 46.411644452925614 -0.01686058569173681 -4.310540393643602 -14.722963178594762 -3.8260044448884645 -0.0045351205794088405 -0.010690160558613477 0.021718817268482942 0.004289468832847942 -10.758414001083022 -0.039934287478203545 
